<?xml version="1.0" encoding="UTF-8" standalone="no"?>
<!-- Created with Inkscape (http://www.inkscape.org/) -->

<svg
   width="800"
   height="100"
   viewBox="0 0 211.66666 26.458333"
   version="1.1"
   id="svg5"
   inkscape:version="1.2 (dc2aedaf03, 2022-05-15)"
   sodipodi:docname="Title.svg"
   xmlns:inkscape="http://www.inkscape.org/namespaces/inkscape"
   xmlns:sodipodi="http://sodipodi.sourceforge.net/DTD/sodipodi-0.dtd"
   xmlns:xlink="http://www.w3.org/1999/xlink"
   xmlns="http://www.w3.org/2000/svg"
   xmlns:svg="http://www.w3.org/2000/svg">
  <sodipodi:namedview
     id="namedview7"
     pagecolor="#ffffff"
     bordercolor="#000000"
     borderopacity="0.25"
     inkscape:showpageshadow="2"
     inkscape:pageopacity="0.0"
     inkscape:pagecheckerboard="0"
     inkscape:deskcolor="#d1d1d1"
     inkscape:document-units="px"
     showgrid="true"
     inkscape:zoom="1.4932432"
     inkscape:cx="407.8371"
     inkscape:cy="-28.79638"
     inkscape:window-width="1920"
     inkscape:window-height="1009"
     inkscape:window-x="-8"
     inkscape:window-y="-8"
     inkscape:window-maximized="1"
     inkscape:current-layer="layer1">
    <inkscape:grid
       type="xygrid"
       id="grid132"
       empspacing="10"
       enabled="true" />
  </sodipodi:namedview>
  <defs
     id="defs2">
    <linearGradient
       inkscape:collect="always"
       id="linearGradient1288">
      <stop
         style="stop-color:#c00000;stop-opacity:1;"
         offset="0"
         id="stop1284" />
      <stop
         style="stop-color:#ec4040;stop-opacity:1;"
         offset="1"
         id="stop1286" />
    </linearGradient>
    <inkscape:path-effect
       effect="bspline"
       id="path-effect5599"
       is_visible="true"
       lpeversion="1"
       weight="33.333333"
       steps="2"
       helper_size="0"
       apply_no_weight="true"
       apply_with_weight="true"
       only_selected="false" />
    <inkscape:path-effect
       effect="bspline"
       id="path-effect5542"
       is_visible="true"
       lpeversion="1"
       weight="33.333333"
       steps="2"
       helper_size="0"
       apply_no_weight="true"
       apply_with_weight="true"
       only_selected="false" />
    <inkscape:path-effect
       effect="interpolate"
       id="path-effect5437"
       is_visible="true"
       lpeversion="1"
       trajectory="m 161.59478,16.990435 h 36.7453"
       equidistant_spacing="true"
       steps="12" />
    <inkscape:path-effect
       effect="interpolate"
       id="path-effect912"
       is_visible="true"
       lpeversion="1"
       trajectory="m 112.14949,16.990435 h 49.44529"
       equidistant_spacing="true"
       steps="16" />
    <linearGradient
       inkscape:collect="always"
       id="linearGradient6786">
      <stop
         style="stop-color:#600060;stop-opacity:1;"
         offset="0"
         id="stop6782" />
      <stop
         style="stop-color:#a040a0;stop-opacity:1;"
         offset="1"
         id="stop6784" />
    </linearGradient>
    <linearGradient
       inkscape:collect="always"
       id="linearGradient6778">
      <stop
         style="stop-color:#0000c0;stop-opacity:1;"
         offset="0"
         id="stop6774" />
      <stop
         style="stop-color:#4040ff;stop-opacity:1;"
         offset="1"
         id="stop6776" />
    </linearGradient>
    <linearGradient
       inkscape:collect="always"
       id="linearGradient5174">
      <stop
         style="stop-color:#c00000;stop-opacity:1;"
         offset="0"
         id="stop5170" />
      <stop
         style="stop-color:#ff4040;stop-opacity:1;"
         offset="1"
         id="stop5172" />
    </linearGradient>
    <linearGradient
       inkscape:collect="always"
       id="linearGradient3662">
      <stop
         style="stop-color:#ff4040;stop-opacity:0;"
         offset="0"
         id="stop3658" />
      <stop
         style="stop-color:#4040ff;stop-opacity:1;"
         offset="1"
         id="stop3660" />
    </linearGradient>
    <linearGradient
       inkscape:collect="always"
       xlink:href="#linearGradient3662"
       id="linearGradient3664"
       x1="32.884297"
       y1="4.002598"
       x2="84.639276"
       y2="4.002598"
       gradientUnits="userSpaceOnUse" />
    <linearGradient
       inkscape:collect="always"
       xlink:href="#linearGradient5174"
       id="linearGradient5176"
       x1="110.65478"
       y1="24.341665"
       x2="128.11728"
       y2="41.804165"
       gradientUnits="userSpaceOnUse"
       gradientTransform="translate(-7.2026929,-16.139583)" />
    <linearGradient
       inkscape:collect="always"
       xlink:href="#linearGradient6778"
       id="linearGradient6780"
       x1="169.28049"
       y1="12.6873"
       x2="186.743"
       y2="30.149799"
       gradientUnits="userSpaceOnUse"
       gradientTransform="translate(20.425755,-4.4852161)" />
    <linearGradient
       inkscape:collect="always"
       xlink:href="#linearGradient6786"
       id="linearGradient6788"
       x1="150.05693"
       y1="-8.9027157"
       x2="167.51942"
       y2="8.5597839"
       gradientUnits="userSpaceOnUse"
       gradientTransform="translate(3.1368194,17.104799)" />
    <linearGradient
       inkscape:collect="always"
       xlink:href="#linearGradient1288"
       id="linearGradient1290"
       x1="32.808334"
       y1="1.3229166"
       x2="38.364582"
       y2="6.614583"
       gradientUnits="userSpaceOnUse" />
  </defs>
  <g
     inkscape:label="Layer 1"
     inkscape:groupmode="layer"
     id="layer1">
    <path
       d="M 4.7749022,2.7832926 V 3.12229 l 0.8805664,0.4061767 c 0.4289774,0.180622 0.6889696,0.406545 0.7792806,0.677478 0.1128888,0.2709332 0.1689819,0.6320996 0.1689819,1.0836548 V 22.629109 c 0,1.038577 -0.3837072,1.682276 -1.1513508,1.930632 l -0.6774781,0.237194 v 0.338481 H 9.2454303 V 24.796935 L 8.5002562,24.559741 C 8.0712788,24.424274 7.777734,24.20988 7.6196898,23.916369 7.4842232,23.60028 7.4166014,23.193516 7.4166014,22.696805 V 14.162443 L 7.3153156,5.7298827 14.697811,25.135416 h 1.693436 l 7.078121,-19.6427281 -0.0677,9.6857131 v 7.620207 c 0,0.451554 -0.05609,0.80171 -0.168982,1.050065 -0.112889,0.248356 -0.383894,0.462749 -0.81287,0.643372 l -0.711585,0.30489 v 0.338481 h 8.433077 V 24.796935 L 29.46383,24.492045 C 29.034852,24.311422 28.763848,24.097029 28.65096,23.848673 28.538071,23.600318 28.481978,23.250162 28.481978,22.798608 V 5.0865111 c 0,-0.451555 0.07863,-0.8132385 0.236678,-1.0841715 0.158044,-0.2935108 0.45159,-0.5189169 0.880566,-0.6769613 L 30.141312,3.12229 V 2.7832926 H 23.469368 L 17.576705,19.175057 11.311454,2.7832926 Z"
       id="path2634"
       style="font-size:33.8667px;font-family:'DM Serif Display';-inkscape-font-specification:'DM Serif Display';text-align:center;text-anchor:middle;fill:#404040;fill-rule:evenodd;stroke-width:1.32292;stroke-linecap:round;stroke-linejoin:round;paint-order:markers stroke fill" />
    <path
       d="m 31.631413,25.135416 v -0.338667 l 0.474134,-0.135467 q 0.677334,-0.2032 0.914401,-0.6096 0.270934,-0.406401 0.270934,-1.083735 V 12.36767 q 0,-0.7112 -0.270934,-1.049867 -0.237067,-0.372534 -0.914401,-0.508001 l -0.474134,-0.1016 v -0.338667 l 6.197606,-1.9981351 0.338667,0.338667 -0.1016,4.8090711 v 9.482676 q 0,0.677334 0.237067,1.083734 0.270934,0.406401 0.914401,0.609601 l 0.338667,0.1016 v 0.338667 z"
       id="path3488"
       style="font-size:33.8667px;font-family:'DM Serif Display';-inkscape-font-specification:'DM Serif Display';text-align:center;text-anchor:middle;fill:#404040;fill-rule:evenodd;stroke-width:1.32292;stroke-linecap:round;stroke-linejoin:round;paint-order:markers stroke fill" />
    <path
       id="path2636"
       style="font-size:33.8667px;font-family:'DM Serif Display';-inkscape-font-specification:'DM Serif Display';text-align:center;text-anchor:middle;fill:url(#linearGradient3664);fill-rule:evenodd;stroke-width:1.32292;stroke-linecap:round;stroke-linejoin:round;paint-order:markers stroke fill;fill-opacity:1"
       d="m 35.627799,1.4288533 c -0.767645,0 -1.422356,0.2369349 -1.964221,0.7110677 -0.519289,0.4741328 -0.779281,1.094775 -0.779281,1.8624186 0,0.7450658 0.259992,1.3662247 0.779281,1.8629353 0.541865,0.474133 1.196576,0.7110677 1.964221,0.7110677 h 46.302082 c 0.767644,0 1.410826,-0.2369347 1.930115,-0.7110677 0.519288,-0.4967106 0.77928,-1.1178695 0.77928,-1.8629353 0,-0.7676436 -0.259992,-1.3882858 -0.77928,-1.8624186 C 83.340707,1.6657882 82.697525,1.4288533 81.929881,1.4288533 Z"
       sodipodi:nodetypes="ccsccscsssc" />
    <path
       d="m 40.809311,25.135416 v -0.338667 l 0.880535,-0.2032 q 0.778934,-0.169334 1.253068,-0.508001 0.508,-0.372533 0.948267,-1.016001 l 3.657604,-5.249338 -4.605871,-7.315207 Q 42.604247,9.9970015 42.333313,9.7260679 42.062379,9.4551343 41.486645,9.3196675 L 41.012512,9.1842007 v -0.338667 h 8.602141 v 0.338667 l -0.575734,0.1354668 q -1.185334,0.3725337 -0.474133,1.4901345 l 2.777069,4.301071 3.014136,-4.165604 q 0.372534,-0.575734 0.338667,-0.9482675 0,-0.4064004 -0.643467,-0.5757339 L 53.204523,9.1842007 v -0.338667 h 4.944538 v 0.338667 l -0.8128,0.2032002 q -0.745068,0.2032002 -1.151468,0.5418672 -0.4064,0.3047999 -0.880534,0.9821339 l -3.556004,4.809072 4.639738,7.213607 q 0.846668,1.320801 2.269069,1.693335 l 0.541867,0.169333 v 0.338667 H 49.85172 v -0.338667 l 0.575734,-0.135467 q 0.575734,-0.135467 0.711201,-0.541867 0.169333,-0.440267 -0.169334,-0.982134 l -2.980269,-4.639738 -3.217337,4.673604 q -0.4064,0.541868 -0.270933,0.948268 0.169333,0.372534 0.7112,0.508001 l 0.677334,0.169333 v 0.338667 z"
       id="path2638"
       style="font-size:33.8667px;font-family:'DM Serif Display';-inkscape-font-specification:'DM Serif Display';text-align:center;text-anchor:middle;fill:#404040;fill-rule:evenodd;stroke-width:1.32292;stroke-linecap:round;stroke-linejoin:round;paint-order:markers stroke fill" />
    <path
       d="m 68.105884,8.3375332 q 2.201335,0 3.759203,0.9144009 1.557868,0.8805339 2.370669,2.4384019 0.846668,1.524002 0.846668,3.48827 0,0.372534 -0.03387,0.778935 -0.03387,0.372533 -0.135467,0.677334 H 64.820814 q 0.03387,3.657603 1.286934,5.283205 1.286935,1.591734 3.793071,1.591734 1.693335,0 2.743202,-0.541867 1.049868,-0.541867 1.964269,-1.591735 l 0.338667,0.304801 q -1.049868,1.862668 -2.810936,2.912536 -1.727202,1.049868 -4.165604,1.049868 -2.404536,0 -4.267204,-1.016001 -1.862669,-1.049868 -2.912536,-2.98027 -1.049868,-1.930402 -1.049868,-4.605871 0,-2.777069 1.219201,-4.707471 1.219201,-1.964269 3.115736,-2.9802698 1.930402,-1.016001 4.030138,-1.016001 z m -0.1016,0.677334 q -0.982135,0 -1.693335,0.6096006 -0.677334,0.5757342 -1.083735,2.0997352 -0.372533,1.490135 -0.4064,4.233338 h 5.791205 Q 70.950686,12.26607 70.341086,10.640469 69.731485,9.0148672 68.004284,9.0148672 Z"
       id="path2640"
       style="font-size:33.8667px;font-family:'DM Serif Display';-inkscape-font-specification:'DM Serif Display';text-align:center;text-anchor:middle;fill:#404040;fill-rule:evenodd;stroke-width:1.32292;stroke-linecap:round;stroke-linejoin:round;paint-order:markers stroke fill" />
    <path
       d="m 83.955496,25.643417 q -1.998135,0 -3.58987,-0.880535 -1.591735,-0.914401 -2.540002,-2.777069 -0.914401,-1.896535 -0.914401,-4.842938 0,-2.98027 1.049868,-4.910671 1.049867,-1.964269 2.777069,-2.9125365 1.727202,-0.9821343 3.759204,-0.9821343 1.185334,0 2.269068,0.2370669 1.083735,0.2370669 1.930402,0.7112007 V 4.8831299 q 0,-0.7112007 -0.237067,-1.0498677 -0.2032,-0.338667 -0.914401,-0.4741338 L 86.901899,3.2236616 v -0.338667 l 6.163739,-1.4901347 0.372534,0.3048003 -0.135467,4.7413379 V 23.001814 q 0,0.677334 0.237067,1.117601 0.237067,0.4064 0.880534,0.575734 l 0.304801,0.1016 v 0.338667 l -5.791206,0.372534 -0.3048,-1.219201 q -0.914401,0.6096 -2.099736,0.982134 -1.151467,0.372534 -2.573869,0.372534 z m 1.964269,-1.253068 q 1.422401,0 2.607736,-0.846668 V 10.098602 q -1.253068,-0.8128012 -2.573869,-0.8128012 -1.625602,0 -2.77707,1.8965352 -1.151468,1.862668 -1.151468,5.892806 0,4.030137 1.083735,5.689605 1.083734,1.625602 2.810936,1.625602 z"
       id="path2642"
       style="font-size:33.8667px;font-family:'DM Serif Display';-inkscape-font-specification:'DM Serif Display';text-align:center;text-anchor:middle;fill:#404040;fill-rule:evenodd;stroke-width:1.32292;stroke-linecap:round;stroke-linejoin:round;paint-order:markers stroke fill" />
    <path
       id="path2644"
       style="font-size:33.8667px;font-family:'DM Serif Display';-inkscape-font-specification:'DM Serif Display';text-align:center;text-anchor:middle;fill:url(#linearGradient5176);fill-opacity:1;fill-rule:evenodd;stroke-width:1.32292;stroke-linecap:round;stroke-linejoin:round;paint-order:markers stroke fill"
       d="m 112.18333,8.2020832 c -4.82214,-1e-7 -8.73125,3.9091138 -8.73125,8.7312498 0,4.822136 3.90911,8.73125 8.73125,8.73125 4.82214,0 8.73125,-3.909114 8.73125,-8.73125 0,-4.822136 -3.90911,-8.7312499 -8.73125,-8.7312498 z"
       sodipodi:nodetypes="sssss" />
    <path
       d="m 128.35475,25.643417 q -2.16747,0 -3.38667,-1.083735 -1.18534,-1.083734 -1.18534,-3.454403 V 9.5228677 h -2.3368 v -0.338667 l 0.8128,-0.1354668 q 1.04987,-0.2370669 1.79494,-0.677334 0.77893,-0.4402671 1.524,-1.1853345 l 2.77707,-3.0818696 h 0.33866 l -0.1016,4.7413379 h 3.79307 v 0.677334 h -3.82693 V 21.714879 q 0,1.185335 0.508,1.794935 0.54186,0.609601 1.35467,0.609601 0.7112,0 1.25306,-0.338667 0.54187,-0.372534 1.08374,-0.982134 l 0.33866,0.338667 q -0.67733,1.151468 -1.86266,1.828802 -1.18534,0.677334 -2.87867,0.677334 z"
       id="path2646"
       style="font-size:33.8667px;font-family:'DM Serif Display';-inkscape-font-specification:'DM Serif Display';text-align:center;text-anchor:middle;fill:#404040;fill-rule:evenodd;stroke-width:1.32292;stroke-linecap:round;stroke-linejoin:round;paint-order:markers stroke fill" />
    <path
       d="m 134.24756,25.135416 v -0.338667 l 0.4064,-0.135467 q 1.2192,-0.4064 1.2192,-1.693335 V 4.8831299 q 0,-0.7112007 -0.23707,-1.0498677 -0.23706,-0.338667 -0.9144,-0.5080005 l -0.508,-0.1354668 v -0.338667 l 5.96054,-1.456268 0.54187,0.3048003 -0.13547,4.7752046 v 4.2333372 q 1.18533,-0.9821341 2.54,-1.6594681 1.38854,-0.7112007 3.04801,-0.7112007 2.20133,0 3.48827,1.2530679 1.3208,1.2530679 1.3208,3.8608039 v 9.550409 q 0,0.677334 0.27093,1.083734 0.27093,0.406401 0.94827,0.609601 l 0.27093,0.1016 v 0.338667 h -7.92481 v -0.338667 l 0.4064,-0.1016 q 1.21921,-0.4064 1.21921,-1.727202 V 12.333804 q 0,-1.354668 -0.47414,-1.862669 -0.44027,-0.5080002 -1.59173,-0.5080002 -0.74507,0 -1.6256,0.3048002 -0.88054,0.270934 -1.79494,0.982134 v 11.785612 q 0,1.320801 1.2192,1.693335 l 0.27093,0.06773 v 0.338667 z"
       id="path2648"
       style="font-size:33.8667px;font-family:'DM Serif Display';-inkscape-font-specification:'DM Serif Display';text-align:center;text-anchor:middle;fill:#404040;fill-rule:evenodd;stroke-width:1.32292;stroke-linecap:round;stroke-linejoin:round;paint-order:markers stroke fill" />
    <path
       d="m 170.51877,25.135416 v -0.338667 l 0.4064,-0.135467 q 1.2192,-0.4064 1.2192,-1.693335 V 4.8492632 q 0,-0.677334 -0.27094,-1.016001 Q 171.6025,3.4607285 170.92517,3.291395 L 170.4849,3.1897949 v -0.338667 l 6.19761,-1.456268 0.4064,0.3048003 -0.13547,4.7413379 V 18.023409 q 0,1.253068 0,2.506136 0.0339,1.219201 0.0339,2.438402 0,0.677334 0.27093,1.117601 0.27093,0.406401 0.9144,0.609601 l 0.44027,0.1016 v 0.338667 z"
       id="path2652"
       style="font-size:33.8667px;font-family:'DM Serif Display';-inkscape-font-specification:'DM Serif Display';text-align:center;text-anchor:middle;fill:#404040;fill-rule:evenodd;stroke-width:1.32292;stroke-linecap:round;stroke-linejoin:round;paint-order:markers stroke fill" />
    <path
       d="m 180.20462,25.135416 v -0.338667 l 0.4064,-0.135467 q 1.2192,-0.4064 1.2192,-1.693335 V 4.8492632 q 0,-0.677334 -0.27093,-1.016001 -0.27094,-0.3725337 -0.94827,-0.5418672 l -0.44027,-0.1016001 v -0.338667 l 6.19761,-1.456268 0.4064,0.3048003 -0.13547,4.7413379 V 18.023409 q 0,1.253068 0,2.506136 0.0339,1.219201 0.0339,2.438402 0,0.677334 0.27093,1.117601 0.27094,0.406401 0.9144,0.609601 l 0.44027,0.1016 v 0.338667 z"
       id="path2654"
       style="font-size:33.8667px;font-family:'DM Serif Display';-inkscape-font-specification:'DM Serif Display';text-align:center;text-anchor:middle;fill:#404040;fill-rule:evenodd;stroke-width:1.32292;stroke-linecap:round;stroke-linejoin:round;paint-order:markers stroke fill" />
    <path
       id="path2656"
       style="font-size:33.8667px;font-family:'DM Serif Display';-inkscape-font-specification:'DM Serif Display';text-align:center;text-anchor:middle;fill:url(#linearGradient6780);fill-opacity:1;fill-rule:evenodd;stroke-width:1.32292;stroke-linecap:round;stroke-linejoin:round;paint-order:markers stroke fill"
       d="m 198.4375,8.2020832 c -4.82214,-1e-7 -8.73125,3.9091138 -8.73125,8.7312498 0,4.822136 3.90911,8.73125 8.73125,8.73125 4.82214,0 8.73125,-3.909114 8.73125,-8.73125 0,-4.822136 -3.90911,-8.7312499 -8.73125,-8.7312498 z"
       sodipodi:nodetypes="sssss" />
    <path
       id="path2636-2"
       style="font-size:33.8667px;font-family:'DM Serif Display';-inkscape-font-specification:'DM Serif Display';text-align:center;text-anchor:middle;fill:url(#linearGradient1290);fill-rule:evenodd;stroke-width:1.32292;stroke-linecap:round;stroke-linejoin:round;paint-order:markers stroke fill;fill-opacity:1"
       d="m 35.62777,1.42875 c -0.767645,0 -1.422355,0.2369344 -1.964221,0.7110677 -0.519289,0.4741333 -0.779281,1.0947742 -0.779281,1.8624186 0,0.7450666 0.259992,1.3662242 0.779281,1.8629353 0.541866,0.4741334 1.196576,0.7110677 1.964221,0.7110677 0.767644,0 1.410826,-0.2369343 1.930114,-0.7110677 0.519289,-0.4967111 0.779281,-1.1178687 0.779281,-1.8629353 0,-0.7676444 -0.259992,-1.3882853 -0.779281,-1.8624186 C 37.038596,1.6656844 36.395414,1.42875 35.62777,1.42875 Z"
       sodipodi:nodetypes="scscscsss" />
    <path
       id="path2650"
       style="font-size:33.8667px;font-family:'DM Serif Display';-inkscape-font-specification:'DM Serif Display';text-align:center;text-anchor:middle;fill:url(#linearGradient6788);fill-opacity:1;fill-rule:evenodd;stroke-width:1.32292;stroke-linecap:round;stroke-linejoin:round;paint-order:markers stroke fill"
       d="m 161.925,8.2020838 c -4.82214,-1e-6 -8.73125,3.9091182 -8.73125,8.7312492 0,4.822132 3.90911,8.73125 8.73125,8.73125 4.82213,0 8.73125,-3.909118 8.73125,-8.73125 -4e-5,1.559652 -0.83212,3.000822 -2.18282,3.780648 -1.35072,0.779845 -3.01489,0.779845 -4.36562,0 -1.3507,-0.779826 -2.18278,-2.220996 -2.18281,-3.780648 h 8.73125 c 0,-4.822131 -3.90912,-8.7312502 -8.73125,-8.7312492 z"
       sodipodi:nodetypes="ssscssccs" />
  </g>
</svg>
